<mxfile host="app.diagrams.net" modified="2021-08-17T07:29:36.415Z" agent="5.0 (Windows NT 10.0; Win64; x64) AppleWebKit/537.36 (KHTML, like Gecko) Chrome/92.0.4515.131 Safari/537.36 Edg/92.0.902.73" etag="sRuAEjNXZmyCgtYvv8Yj" version="14.9.4" type="github">
  <diagram id="C5RBs43oDa-KdzZeNtuy" name="Page-1">
    <mxGraphModel dx="1278" dy="579" grid="1" gridSize="10" guides="1" tooltips="1" connect="1" arrows="1" fold="1" page="1" pageScale="1" pageWidth="827" pageHeight="1169" math="1" shadow="0">
      <root>
        <mxCell id="WIyWlLk6GJQsqaUBKTNV-0" />
        <mxCell id="WIyWlLk6GJQsqaUBKTNV-1" parent="WIyWlLk6GJQsqaUBKTNV-0" />
        <mxCell id="A0igZCzbgm9nRBBkP2Qu-33" value="" style="edgeStyle=orthogonalEdgeStyle;rounded=0;orthogonalLoop=1;jettySize=auto;html=1;" edge="1" parent="WIyWlLk6GJQsqaUBKTNV-1" source="WIyWlLk6GJQsqaUBKTNV-12" target="A0igZCzbgm9nRBBkP2Qu-10">
          <mxGeometry relative="1" as="geometry" />
        </mxCell>
        <mxCell id="WIyWlLk6GJQsqaUBKTNV-12" value="\(count=1\)" style="rounded=1;whiteSpace=wrap;html=1;fontSize=12;glass=0;strokeWidth=1;shadow=0;" parent="WIyWlLk6GJQsqaUBKTNV-1" vertex="1">
          <mxGeometry x="160" y="130" width="120" height="40" as="geometry" />
        </mxCell>
        <mxCell id="A0igZCzbgm9nRBBkP2Qu-9" style="edgeStyle=orthogonalEdgeStyle;rounded=0;orthogonalLoop=1;jettySize=auto;html=1;exitX=0.5;exitY=1;exitDx=0;exitDy=0;entryX=0.5;entryY=0;entryDx=0;entryDy=0;" edge="1" parent="WIyWlLk6GJQsqaUBKTNV-1" source="A0igZCzbgm9nRBBkP2Qu-6" target="WIyWlLk6GJQsqaUBKTNV-12">
          <mxGeometry relative="1" as="geometry" />
        </mxCell>
        <mxCell id="A0igZCzbgm9nRBBkP2Qu-6" value="蒙特卡罗求较好初始解\(S_1\)，\(T=T_0\)" style="rounded=1;whiteSpace=wrap;html=1;" vertex="1" parent="WIyWlLk6GJQsqaUBKTNV-1">
          <mxGeometry x="160" y="60" width="120" height="40" as="geometry" />
        </mxCell>
        <mxCell id="A0igZCzbgm9nRBBkP2Qu-21" value="" style="edgeStyle=orthogonalEdgeStyle;rounded=0;orthogonalLoop=1;jettySize=auto;html=1;" edge="1" parent="WIyWlLk6GJQsqaUBKTNV-1" source="A0igZCzbgm9nRBBkP2Qu-10" target="A0igZCzbgm9nRBBkP2Qu-20">
          <mxGeometry relative="1" as="geometry" />
        </mxCell>
        <mxCell id="A0igZCzbgm9nRBBkP2Qu-10" value="解变换得到新解" style="whiteSpace=wrap;html=1;rounded=1;shadow=0;strokeWidth=1;glass=0;" vertex="1" parent="WIyWlLk6GJQsqaUBKTNV-1">
          <mxGeometry x="161" y="190" width="119" height="40" as="geometry" />
        </mxCell>
        <mxCell id="A0igZCzbgm9nRBBkP2Qu-23" value="" style="edgeStyle=orthogonalEdgeStyle;rounded=0;orthogonalLoop=1;jettySize=auto;html=1;" edge="1" parent="WIyWlLk6GJQsqaUBKTNV-1" source="A0igZCzbgm9nRBBkP2Qu-20" target="A0igZCzbgm9nRBBkP2Qu-22">
          <mxGeometry relative="1" as="geometry" />
        </mxCell>
        <mxCell id="A0igZCzbgm9nRBBkP2Qu-20" value="Metropolics准则判断是否接受新解" style="whiteSpace=wrap;html=1;rounded=1;shadow=0;strokeWidth=1;glass=0;" vertex="1" parent="WIyWlLk6GJQsqaUBKTNV-1">
          <mxGeometry x="160" y="250" width="120" height="40" as="geometry" />
        </mxCell>
        <mxCell id="A0igZCzbgm9nRBBkP2Qu-27" value="" style="edgeStyle=orthogonalEdgeStyle;rounded=0;orthogonalLoop=1;jettySize=auto;html=1;" edge="1" parent="WIyWlLk6GJQsqaUBKTNV-1" source="A0igZCzbgm9nRBBkP2Qu-22" target="A0igZCzbgm9nRBBkP2Qu-26">
          <mxGeometry relative="1" as="geometry" />
        </mxCell>
        <mxCell id="A0igZCzbgm9nRBBkP2Qu-22" value="新\(S_1,count+1\)" style="whiteSpace=wrap;html=1;rounded=1;shadow=0;strokeWidth=1;glass=0;" vertex="1" parent="WIyWlLk6GJQsqaUBKTNV-1">
          <mxGeometry x="160" y="310" width="120" height="30" as="geometry" />
        </mxCell>
        <mxCell id="A0igZCzbgm9nRBBkP2Qu-28" style="edgeStyle=orthogonalEdgeStyle;rounded=0;orthogonalLoop=1;jettySize=auto;html=1;exitX=1;exitY=0.5;exitDx=0;exitDy=0;entryX=1;entryY=0.5;entryDx=0;entryDy=0;" edge="1" parent="WIyWlLk6GJQsqaUBKTNV-1" source="A0igZCzbgm9nRBBkP2Qu-26" target="A0igZCzbgm9nRBBkP2Qu-10">
          <mxGeometry relative="1" as="geometry" />
        </mxCell>
        <mxCell id="A0igZCzbgm9nRBBkP2Qu-31" value="" style="edgeStyle=orthogonalEdgeStyle;rounded=0;orthogonalLoop=1;jettySize=auto;html=1;" edge="1" parent="WIyWlLk6GJQsqaUBKTNV-1" source="A0igZCzbgm9nRBBkP2Qu-26" target="A0igZCzbgm9nRBBkP2Qu-30">
          <mxGeometry relative="1" as="geometry" />
        </mxCell>
        <mxCell id="A0igZCzbgm9nRBBkP2Qu-26" value="\(count&amp;gt;L\)" style="rhombus;whiteSpace=wrap;html=1;" vertex="1" parent="WIyWlLk6GJQsqaUBKTNV-1">
          <mxGeometry x="155.5" y="360" width="130" height="60" as="geometry" />
        </mxCell>
        <mxCell id="A0igZCzbgm9nRBBkP2Qu-29" value="是" style="text;html=1;strokeColor=none;fillColor=none;align=center;verticalAlign=middle;whiteSpace=wrap;rounded=0;" vertex="1" parent="WIyWlLk6GJQsqaUBKTNV-1">
          <mxGeometry x="320" y="310" width="40" height="20" as="geometry" />
        </mxCell>
        <mxCell id="A0igZCzbgm9nRBBkP2Qu-36" value="" style="edgeStyle=orthogonalEdgeStyle;rounded=0;orthogonalLoop=1;jettySize=auto;html=1;" edge="1" parent="WIyWlLk6GJQsqaUBKTNV-1" source="A0igZCzbgm9nRBBkP2Qu-30" target="A0igZCzbgm9nRBBkP2Qu-35">
          <mxGeometry relative="1" as="geometry" />
        </mxCell>
        <mxCell id="A0igZCzbgm9nRBBkP2Qu-30" value="\(T=a\times T\)" style="whiteSpace=wrap;html=1;" vertex="1" parent="WIyWlLk6GJQsqaUBKTNV-1">
          <mxGeometry x="161" y="450" width="120" height="30" as="geometry" />
        </mxCell>
        <mxCell id="A0igZCzbgm9nRBBkP2Qu-32" value="否" style="text;html=1;strokeColor=none;fillColor=none;align=center;verticalAlign=middle;whiteSpace=wrap;rounded=0;" vertex="1" parent="WIyWlLk6GJQsqaUBKTNV-1">
          <mxGeometry x="170" y="410" width="40" height="40" as="geometry" />
        </mxCell>
        <mxCell id="A0igZCzbgm9nRBBkP2Qu-37" style="edgeStyle=orthogonalEdgeStyle;rounded=0;orthogonalLoop=1;jettySize=auto;html=1;exitX=1;exitY=0.5;exitDx=0;exitDy=0;entryX=1;entryY=0.25;entryDx=0;entryDy=0;" edge="1" parent="WIyWlLk6GJQsqaUBKTNV-1" source="A0igZCzbgm9nRBBkP2Qu-35" target="WIyWlLk6GJQsqaUBKTNV-12">
          <mxGeometry relative="1" as="geometry">
            <Array as="points">
              <mxPoint x="360" y="533" />
              <mxPoint x="360" y="140" />
            </Array>
          </mxGeometry>
        </mxCell>
        <mxCell id="A0igZCzbgm9nRBBkP2Qu-40" value="" style="edgeStyle=orthogonalEdgeStyle;rounded=0;orthogonalLoop=1;jettySize=auto;html=1;" edge="1" parent="WIyWlLk6GJQsqaUBKTNV-1" source="A0igZCzbgm9nRBBkP2Qu-35" target="A0igZCzbgm9nRBBkP2Qu-39">
          <mxGeometry relative="1" as="geometry" />
        </mxCell>
        <mxCell id="A0igZCzbgm9nRBBkP2Qu-35" value="\(T&amp;lt;T_{end}\)" style="rhombus;whiteSpace=wrap;html=1;" vertex="1" parent="WIyWlLk6GJQsqaUBKTNV-1">
          <mxGeometry x="156" y="505" width="130" height="55" as="geometry" />
        </mxCell>
        <mxCell id="A0igZCzbgm9nRBBkP2Qu-38" value="否" style="text;html=1;strokeColor=none;fillColor=none;align=center;verticalAlign=middle;whiteSpace=wrap;rounded=0;" vertex="1" parent="WIyWlLk6GJQsqaUBKTNV-1">
          <mxGeometry x="170" y="480" width="40" height="40" as="geometry" />
        </mxCell>
        <mxCell id="A0igZCzbgm9nRBBkP2Qu-39" value="输出当前解" style="whiteSpace=wrap;html=1;" vertex="1" parent="WIyWlLk6GJQsqaUBKTNV-1">
          <mxGeometry x="161" y="580" width="120" height="40" as="geometry" />
        </mxCell>
      </root>
    </mxGraphModel>
  </diagram>
</mxfile>
